<svg width="9" height="10" viewBox="0 0 9 10" fill="none" xmlns="http://www.w3.org/2000/svg">
<path d="M2.54796 5.64984C2.42179 5.64984 2.31595 5.60709 2.23045 5.52158C2.14524 5.43638 2.10264 5.33069 2.10264 5.20452C2.10264 5.07834 2.14524 4.9725 2.23045 4.887C2.31595 4.8018 2.42179 4.75919 2.54796 4.75919C2.67414 4.75919 2.77998 4.8018 2.86548 4.887C2.95068 4.9725 2.99328 5.07834 2.99328 5.20452C2.99328 5.33069 2.95068 5.43638 2.86548 5.52158C2.77998 5.60709 2.67414 5.64984 2.54796 5.64984ZM4.32925 5.64984C4.20308 5.64984 4.09739 5.60709 4.01218 5.52158C3.92668 5.43638 3.88393 5.33069 3.88393 5.20452C3.88393 5.07834 3.92668 4.9725 4.01218 4.887C4.09739 4.8018 4.20308 4.75919 4.32925 4.75919C4.45543 4.75919 4.56126 4.8018 4.64677 4.887C4.73197 4.9725 4.77457 5.07834 4.77457 5.20452C4.77457 5.33069 4.73197 5.43638 4.64677 5.52158C4.56126 5.60709 4.45543 5.64984 4.32925 5.64984ZM6.11054 5.64984C5.98437 5.64984 5.87868 5.60709 5.79347 5.52158C5.70797 5.43638 5.66522 5.33069 5.66522 5.20452C5.66522 5.07834 5.70797 4.9725 5.79347 4.887C5.87868 4.8018 5.98437 4.75919 6.11054 4.75919C6.23672 4.75919 6.34241 4.8018 6.42761 4.887C6.51311 4.9725 6.55586 5.07834 6.55586 5.20452C6.55586 5.33069 6.51311 5.43638 6.42761 5.52158C6.34241 5.60709 6.23672 5.64984 6.11054 5.64984ZM1.21199 9.21242C0.967068 9.21242 0.757321 9.12528 0.582754 8.95101C0.408485 8.77645 0.32135 8.5667 0.32135 8.32177V2.08726C0.32135 1.84233 0.408485 1.63273 0.582754 1.45846C0.757321 1.2839 0.967068 1.19661 1.21199 1.19661H1.65732V0.305969H2.54796V1.19661H6.11054V0.305969H7.00119V1.19661H7.44651C7.69144 1.19661 7.90118 1.2839 8.07575 1.45846C8.25002 1.63273 8.33715 1.84233 8.33715 2.08726V8.32177C8.33715 8.5667 8.25002 8.77645 8.07575 8.95101C7.90118 9.12528 7.69144 9.21242 7.44651 9.21242H1.21199ZM1.21199 8.32177H7.44651V3.86855H1.21199V8.32177ZM1.21199 2.9779H7.44651V2.08726H1.21199V2.9779Z" fill="#121212" fill-opacity="0.8"/>
</svg>
